# xmcd CD database file
# Copyright (C) 1997 Ti Kan
#
# Track frame offsets:
#  150
#  13950
#  31538
#  51978
#  68795
#  86590
#  109100
#  127893
#  148143
#  168065
#
# Disc length: 2482 seconds
#
# Revision: 2
# Processed by: cddbd v1.4PL0 Copyright (c) Steve Scherf et al.
# Submitted via: Gronk 1.4
#
DISCID=7e09b00a
DTITLE=Ronnie Milsap - Heart and Soul
DYEAR=1900
DGENRE=country
TTITLE0=Snap Your Fingers
TTITLE1=Button Off My Shirt
TTITLE2=Where Do THe Nights Go
TTITLE3=The Truth Is, I've Been Known To Lie
TTITLE4=Make No Mistake, She's Mine
TTITLE5=One Night
TTITLE6=Somebody Like You
TTITLE7=This Time Last Year
TTITLE8=Earthquake
TTITLE9=Old Folks (duet with Mike Reid)
EXTD=
EXTT0=
EXTT1=
EXTT2=
EXTT3=
EXTT4=
EXTT5=
EXTT6=
EXTT7=
EXTT8=
EXTT9=
PLAYORDER=
